<?xml version="1.0" encoding="UTF-8" standalone="no"?>
<svg width="433px" height="530px" viewBox="0 0 433 530" version="1.1" xmlns="http://www.w3.org/2000/svg" xmlns:xlink="http://www.w3.org/1999/xlink" xmlns:sketch="http://www.bohemiancoding.com/sketch/ns">
    <!-- Generator: Sketch 3.2.1 (9971) - http://www.bohemiancoding.com/sketch -->
    <title>Group</title>
    <desc>Created with Sketch.</desc>
    <defs>
        <path id="path-1" d="M59.8571429,296.861538 C59.8571429,367.943385 78.0972679,437.705846 102.855589,495.099077 C94.8064286,496.171077 75.3214286,501.531077 75.3214286,527.753846 L152.642857,527.753846 C161.217804,527.753846 168.107143,520.332308 168.107143,511.261538 L168.107143,412.307692 C183.571429,417.791385 199.035714,420.537354 214.5,420.537354 L214.5,65.9692308 C113.982143,65.9692308 59.8571429,155.687385 59.8571429,296.861538"></path>
    </defs>
    <g id="Page-1" stroke="none" stroke-width="1" fill="none" fill-rule="evenodd" sketch:type="MSPage">
        <g id="Group" sketch:type="MSLayerGroup" transform="translate(2.000000, 1.000000)">
            <path d="M206.767857,47.9629292 L206.767857,66.1869292 C209.319464,66.0632369 211.886536,65.9725292 214.5,65.9725292 C217.128929,65.9725292 219.665071,66.1704369 222.232143,66.2941292 L222.232143,47.9629292 C231.216893,44.5572677 237.696429,35.4864985 237.696429,24.74176 C237.696429,11.0778831 227.304429,0.00329846154 214.5,0.00329846154 C201.695571,0.00329846154 191.303571,11.0778831 191.303571,24.74176 C191.303571,35.4864985 197.783107,44.5572677 206.767857,47.9629292" id="Fill-5441" fill="#448AFF" sketch:type="MSShapeGroup"></path>
            <path d="M128.676307,78.8456 L135.789879,89.9201846 C140.073486,86.8526154 144.534932,84.0571692 149.166486,81.5668308 L141.434343,69.5356923 C147.055611,61.3060308 147.589129,49.9263385 141.890539,41.0534769 C134.653254,29.7809846 120.217343,26.8948308 109.647504,34.6214769 C99.0776643,42.3398769 96.3714143,57.7436923 103.616432,69.0079385 C109.315021,77.8808 119.444129,81.4513846 128.676307,78.8456" id="Fill-5442" fill="#448AFF" sketch:type="MSShapeGroup"></path>
            <path d="M279.785575,81.6484677 C284.424861,84.1470523 288.886307,86.91776 293.169914,89.9853292 L300.322146,78.8447754 C309.531129,81.4588062 319.683432,77.8799754 325.382021,69.0071138 C332.627039,57.7428677 329.920789,42.3390523 319.35095,34.6206523 C308.781111,26.8940062 294.3452,29.78016 287.107914,41.0526523 C281.409325,49.9255138 281.942843,61.3052062 287.564111,69.5348677 L279.785575,81.6484677 Z" id="Fill-5443" fill="#448AFF" sketch:type="MSShapeGroup"></path>
            <path d="M237.696429,24.7384615 C237.696429,38.4023385 227.304429,49.4769231 214.5,49.4769231 C201.695571,49.4769231 191.303571,38.4023385 191.303571,24.7384615 C191.303571,11.0745846 201.695571,0 214.5,0 C227.304429,0 237.696429,11.0745846 237.696429,24.7384615" id="Fill-5444" stroke="#FFFFFF" fill="#FFFFFF" sketch:type="MSShapeGroup"></path>
            <path d="M325.385114,69.0054646 C318.140096,80.2779569 303.704186,83.1641108 293.134346,75.4374646 C282.564507,67.7190646 279.865989,52.3317415 287.111007,41.0510031 C294.340561,29.7785108 308.784204,26.9006031 319.354043,34.6190031 C329.923882,42.3374031 332.630132,57.7329723 325.385114,69.0054646" id="Fill-5445" stroke="#FFFFFF" fill="#FFFFFF" sketch:type="MSShapeGroup"></path>
            <path d="M48.6548143,408.181317 C56.1395286,402.912025 63.3381536,397.057255 69.9877964,391.284948 C63.5701179,360.765932 59.8586893,328.935778 59.8586893,296.85824 C59.8586893,258.761009 63.8020821,224.374548 71.6038143,194.605932 C48.4924393,224.044702 11.5327964,284.159163 0.947492857,376.681009 C-0.537078571,389.380086 5.11511786,401.922486 15.3215464,408.676086 C25.6052964,415.437932 38.5952964,415.281255 48.6548143,408.181317 Z" id="Fill-5449" stroke="#FFFFFF" stroke-width="5" fill="#FFFFFF" sketch:type="MSShapeGroup"></path>
            <path d="M413.678454,408.676086 C403.394704,415.437932 390.404704,415.281255 380.352918,408.181317 C372.860471,402.912025 365.669579,397.057255 359.012204,391.284948 C365.429882,360.765932 369.141311,328.935778 369.141311,296.85824 C369.141311,258.761009 365.197918,224.374548 357.396186,194.605932 C380.515293,224.044702 417.467204,284.159163 428.060239,376.681009 C429.537079,389.380086 423.884882,401.922486 413.678454,408.676086" id="Fill-5448" stroke="#FFFFFF" stroke-width="5" fill="#FFFFFF" sketch:type="MSShapeGroup"></path>
            <path d="M103.614886,69.0054646 C110.859904,80.2779569 125.295814,83.1641108 135.865654,75.4374646 C146.435493,67.7190646 149.134011,52.3317415 141.888993,41.0510031 C134.659439,29.7785108 120.215796,26.9006031 109.645957,34.6190031 C99.0761179,42.3374031 96.3698679,57.7329723 103.614886,69.0054646" id="Fill-5446" stroke="#FFFFFF" fill="#FFFFFF" sketch:type="MSShapeGroup"></path>
            <path d="M359.009884,391.281649 C351.355063,428.389342 339.756848,463.600418 326.148277,495.100726 C334.197438,496.172726 353.682438,501.532726 353.682438,527.755495 L276.361009,527.755495 C267.855652,527.755495 260.896723,520.325711 260.896723,511.263188 L260.896723,412.309342 C229.968152,423.276726 199.03958,423.276726 168.111009,412.309342 L168.111009,511.263188 C168.111009,520.325711 161.229402,527.755495 152.646723,527.755495 L75.3252946,527.755495 C75.3252946,501.532726 94.8025625,496.172726 102.851723,495.100726 C78.1088661,437.707495 59.8610089,367.945034 59.8610089,296.863188 C59.8610089,155.689034 113.986009,65.97088 214.503866,65.97088 C287.881902,65.97088 336.594402,113.798572 357.393866,194.602634 C365.20333,224.379495 369.146723,258.765957 369.146723,296.863188 C369.146723,328.93248 365.427563,360.77088 359.009884,391.281649" id="Fill-5447" stroke="#FFFFFF" fill="#8DD4AB" sketch:type="MSShapeGroup"></path>
            <text id="Type-something" sketch:type="MSTextLayer" font-family="Helvetica" font-size="12" font-weight="normal" fill="#000000">
                <tspan x="217" y="292">367D54</tspan>
            </text>
            <text id="Type-something" sketch:type="MSTextLayer" font-family="Helvetica" font-size="12" font-weight="normal" fill="#000000">
                <tspan x="214" y="292">#367D54</tspan>
            </text>
            <g id="Fill-5450">
                <use sketch:type="MSShapeGroup" xlink:href="#path-1"></use>
                <use xlink:href="#path-1"></use>
            </g>
            <path d="M315.178571,228.907692 C315.178571,288.203547 270.099741,336.27909 214.5,336.27909 C158.900259,336.27909 113.821429,288.203547 113.821429,228.907692 C113.821429,169.611838 158.900259,121.536294 214.5,121.536294 C270.099741,121.536294 315.178571,169.611838 315.178571,228.907692" id="Fill-5451" fill="#E8EBF7" sketch:type="MSShapeGroup"></path>
            <path d="M246.508929,210.252976 C235.907571,210.252976 227.303571,201.077006 227.303571,189.770901 C227.303571,183.230291 230.235589,177.481656 234.704036,173.726609 C228.507107,170.886428 221.682804,169.288826 214.5,169.288826 C186.216911,169.288826 163.285714,193.744423 163.285714,223.907692 C163.285714,254.070961 186.216911,278.526559 214.5,278.526559 C242.770286,278.526559 265.714286,254.070961 265.714286,223.907692 C265.714286,216.247396 264.216268,208.983087 261.553125,202.374204 C258.032143,207.126046 252.641839,210.252976 246.508929,210.252976" id="Fill-5452" fill="#1A3B7E" sketch:type="MSShapeGroup"></path>
        </g>
    </g>
</svg>